<?xml version="1.0" standalone="no"?>
<!DOCTYPE svg PUBLIC "-//W3C//DTD SVG 20010904//EN"
 "http://www.w3.org/TR/2001/REC-SVG-20010904/DTD/svg10.dtd">
<svg version="1.0" xmlns="http://www.w3.org/2000/svg"
 width="700.000000pt" height="700.000000pt" viewBox="0 0 700.000000 700.000000"
 preserveAspectRatio="xMidYMid meet">
<metadata>
Created by potrace 1.11, written by Peter Selinger 2001-2013
</metadata>
<g transform="translate(0.000000,700.000000) scale(0.100000,-0.100000)"
fill="#000000" stroke="none">
<path d="M3355 6994 c-538 -32 -977 -146 -1425 -370 -912 -458 -1581 -1296
-1824 -2287 -71 -286 -99 -522 -99 -837 0 -124 6 -274 12 -335 75 -709 335
-1340 773 -1877 591 -722 1425 -1169 2373 -1269 142 -15 528 -15 670 0 449 47
846 162 1235 357 912 458 1581 1296 1824 2287 71 286 99 522 99 837 0 124 -6
275 -12 335 -75 709 -335 1340 -773 1877 -589 720 -1448 1180 -2368 1267 -121
12 -397 20 -485 15z m1290 -2867 c164 -42 285 -95 417 -183 196 -130 343 -298
448 -509 248 -501 158 -1084 -229 -1488 -274 -285 -648 -427 -1047 -396 -612
48 -1107 518 -1189 1129 -24 171 -15 328 25 491 122 485 524 870 1005 963 44
8 89 17 100 20 11 3 99 3 195 1 147 -2 191 -7 275 -28z"/>
</g>
</svg>
