<?xml version="1.0" standalone="no"?>
<!DOCTYPE svg PUBLIC "-//W3C//DTD SVG 20010904//EN"
 "http://www.w3.org/TR/2001/REC-SVG-20010904/DTD/svg10.dtd">
<svg version="1.0" xmlns="http://www.w3.org/2000/svg"
 width="700.000000pt" height="700.000000pt" viewBox="0 0 700.000000 700.000000"
 preserveAspectRatio="xMidYMid meet">
<metadata>
Created by potrace 1.11, written by Peter Selinger 2001-2013
</metadata>
<g transform="translate(0.000000,700.000000) scale(0.100000,-0.100000)"
fill="#000000" stroke="none">
<path d="M3355 6994 c-516 -30 -944 -138 -1373 -344 -938 -452 -1628 -1303
-1876 -2313 -71 -286 -99 -522 -99 -837 0 -124 6 -274 12 -335 65 -619 273
-1181 617 -1672 175 -249 414 -507 645 -696 541 -442 1173 -703 1884 -778 142
-15 528 -15 670 0 427 45 813 153 1183 331 938 452 1628 1303 1876 2313 71
286 99 522 99 837 0 124 -6 275 -12 335 -45 427 -153 813 -331 1183 -529 1098
-1602 1847 -2810 1961 -121 12 -397 20 -485 15z m1209 -2850 c625 -109 1086
-656 1086 -1289 0 -343 -128 -660 -367 -906 -258 -266 -576 -402 -943 -402
-367 0 -685 136 -943 402 -592 612 -446 1613 298 2044 99 58 265 121 370 141
44 8 89 17 100 19 53 12 317 6 399 -9z"/>
</g>
</svg>
