<?xml version="1.0" encoding="UTF-8" standalone="no"?>
<svg
   xmlns:dc="http://purl.org/dc/elements/1.1/"
   xmlns:cc="http://creativecommons.org/ns#"
   xmlns:rdf="http://www.w3.org/1999/02/22-rdf-syntax-ns#"
   xmlns:svg="http://www.w3.org/2000/svg"
   xmlns="http://www.w3.org/2000/svg"
   xmlns:xlink="http://www.w3.org/1999/xlink"
   xmlns:sodipodi="http://sodipodi.sourceforge.net/DTD/sodipodi-0.dtd"
   xmlns:inkscape="http://www.inkscape.org/namespaces/inkscape"
   width="418"
   height="380"
   id="svg2"
   version="1.1"
   inkscape:version="0.91 r13725"
   sodipodi:docname="diagram.svg">
  <metadata
     id="metadata62">
    <rdf:RDF>
      <cc:Work
         rdf:about="">
        <dc:format>image/svg+xml</dc:format>
        <dc:type
           rdf:resource="http://purl.org/dc/dcmitype/StillImage" />
      </cc:Work>
    </rdf:RDF>
  </metadata>
  <defs
     id="defs60" />
  <sodipodi:namedview
     pagecolor="#ffffff"
     bordercolor="#666666"
     borderopacity="1"
     objecttolerance="10"
     gridtolerance="10"
     guidetolerance="10"
     inkscape:pageopacity="0"
     inkscape:pageshadow="2"
     inkscape:window-width="1208"
     inkscape:window-height="712"
     id="namedview58"
     showgrid="false"
     inkscape:zoom="1.3731086"
     inkscape:cx="178.41247"
     inkscape:cy="191.53101"
     inkscape:window-x="0"
     inkscape:window-y="0"
     inkscape:window-maximized="0"
     inkscape:current-layer="svg2" />
  <path
     style="fill:none;stroke:#787878;stroke-width:2;stroke-opacity:1"
     inkscape:connector-curvature="0"
     id="path6"
     d="m 248.99877,236.50102 c 0,22.1 -17.9,40 -40,40 -22.1,0 -40,-17.9 -40,-40 0,-22.1 17.9,-40 40,-40 22.1,0 40,17.9 40,40 z" />
  <use
     height="100%"
     width="100%"
     y="0"
     x="0"
     id="use8"
     transform="translate(209.005,240.9)"
     xlink:href="#a" />
  <path
     style="fill:none;stroke:#787878;stroke-width:2;stroke-opacity:1"
     inkscape:connector-curvature="0"
     id="path10"
     d="m 238.99877,50.00102 c 0,16.57 -13.43,30 -30,30 -16.57,0 -30,-13.43 -30,-30 0,-16.57 13.43,-30 30,-30 16.57,0 30,13.43 30,30 z" />
  <use
     height="100%"
     width="100%"
     y="0"
     x="0"
     id="use12"
     transform="translate(209.005,56.900001)"
     xlink:href="#a" />
  <path
     style="fill:none;stroke:#787878;stroke-width:2;stroke-opacity:1"
     inkscape:connector-curvature="0"
     id="path14"
     d="m 397.99877,330.00102 c 0,16.57 -13.43,30 -30,30 -16.57,0 -30,-13.43 -30,-30 0,-16.57 13.43,-30 30,-30 16.57,0 30,13.43 30,30 z" />
  <use
     height="100%"
     width="100%"
     y="0"
     x="0"
     id="use16"
     transform="translate(368.005,336.9)"
     xlink:href="#a" />
  <path
     style="fill:none;stroke:#787878;stroke-width:2;stroke-opacity:1"
     inkscape:connector-curvature="0"
     id="path18"
     d="m 79.99877,330.00102 c 0,16.57 -13.43,30 -30,30 -16.57,0 -30,-13.43 -30,-30 0,-16.57 13.43,-30 30,-30 16.57,0 30,13.43 30,30 z" />
  <use
     height="100%"
     width="100%"
     y="0"
     x="0"
     id="use20"
     transform="translate(50.005001,336.9)"
     xlink:href="#a" />
  <path
     style="fill:none;stroke:#33b4db;stroke-opacity:1"
     inkscape:connector-curvature="0"
     id="path22"
     d="m 225.94877,92.14102 0,91.2" />
  <path
     style="fill:#33b4db;stroke:#33b4db;stroke-opacity:1;fill-opacity:1"
     inkscape:connector-curvature="0"
     id="path24"
     d="m 225.94877,183.35102 -4.63,-14.26 9.27,0 z" />
  <path
     style="fill:none;stroke:#787878;stroke-opacity:1"
     inkscape:connector-curvature="0"
     id="path26"
     d="m 208.94877,93.14102 0,91.2" />
  <path
     style="fill:#787878;stroke:#787878;stroke-opacity:1;fill-opacity:1"
     inkscape:connector-curvature="0"
     id="path28"
     d="m 208.94877,93.14102 4.64,14.27 -9.28,0 z" />
  <path
     style="fill:none;stroke:#787878;stroke-opacity:1"
     inkscape:connector-curvature="0"
     id="path30"
     d="m 192.04877,92.43102 0,91.2" />
  <path
     style="fill:#787878;stroke:#787878;stroke-opacity:1;fill-opacity:1"
     inkscape:connector-curvature="0"
     id="path32"
     d="m 192.04877,92.43102 4.65,14.25 -9.28,0 z" />
  <path
     style="fill:none;stroke:#33b4db;stroke-opacity:1"
     inkscape:connector-curvature="0"
     id="path34"
     d="m 73.24877,290.98102 79.17,-45.28" />
  <path
     style="fill:#33b4db;stroke:#33b4db;stroke-opacity:1;fill-opacity:1"
     inkscape:connector-curvature="0"
     id="path36"
     d="m 152.41877,245.70102 -10.08,11.1 -4.6,-8.04 z" />
  <path
     style="fill:none;stroke:#787878;stroke-opacity:1"
     inkscape:connector-curvature="0"
     id="path38"
     d="m 82.55877,305.25102 79.17,-45.3" />
  <path
     style="fill:#787878;stroke:#787878;stroke-opacity:1;fill-opacity:1"
     inkscape:connector-curvature="0"
     id="path40"
     d="m 82.55877,305.25102 10.08,-11.1 4.6,8.04 z" />
  <path
     style="fill:none;stroke:#787878;stroke-opacity:1"
     inkscape:connector-curvature="0"
     id="path42"
     d="m 90.32877,320.28102 79.17,-45.3" />
  <path
     style="fill:#787878;stroke:#787878;stroke-opacity:1;fill-opacity:1"
     inkscape:connector-curvature="0"
     id="path44"
     d="m 90.32877,320.28102 10.08,-11.1 4.6,8.03 z" />
  <path
     style="fill:none;stroke:#33b4db;stroke-opacity:1"
     inkscape:connector-curvature="0"
     id="path46"
     d="m 325.42877,321.78102 -78.76,-45.98" />
  <path
     style="fill:#33b4db;stroke:#33b4db;stroke-opacity:1;fill-opacity:1"
     inkscape:connector-curvature="0"
     id="path48"
     d="m 246.66877,275.80102 14.65,3.2 -4.67,8 z" />
  <path
     style="fill:none;stroke:#787878;stroke-opacity:1"
     inkscape:connector-curvature="0"
     id="path50"
     d="m 333.13877,306.60102 -78.77,-46" />
  <path
     style="fill:#787878;stroke:#787878;stroke-opacity:1;fill-opacity:1"
     inkscape:connector-curvature="0"
     id="path52"
     d="m 333.13877,306.60102 -14.66,-3.2 4.68,-8 z" />
  <path
     style="fill:none;stroke:#787878;stroke-opacity:1"
     inkscape:connector-curvature="0"
     id="path54"
     d="m 342.27877,292.38102 -78.77,-46" />
  <path
     style="fill:#787878;stroke:#787878;stroke-opacity:1;fill-opacity:1"
     inkscape:connector-curvature="0"
     id="path56"
     d="m 342.27877,292.38102 -14.66,-3.2 4.68,-8 z" />
</svg>
