<svg xmlns="http://www.w3.org/2000/svg" xmlns:xlink="http://www.w3.org/1999/xlink" width="418" height="380"><g transform="translate(-431.30122877151257 -234.61897917077386)"><path d="M680.3 471.12c0 22.1-17.9 40-40 40s-40-17.9-40-40 17.9-40 40-40 40 17.9 40 40z" stroke="#fff" stroke-width="2" fill="none"/><use xlink:href="#a" transform="matrix(1,0,0,1,600.3012287715126,431.11897917077386) translate(40.005 44.4)"/><path d="M670.3 284.62c0 16.57-13.43 30-30 30s-30-13.43-30-30 13.43-30 30-30 30 13.43 30 30z" stroke="#fff" stroke-width="2" fill="none"/><use xlink:href="#a" transform="matrix(1,0,0,1,610.3012287715126,254.61897917077386) translate(30.005000000000003 36.9)"/><path d="M829.3 564.62c0 16.57-13.43 30-30 30s-30-13.43-30-30 13.43-30 30-30 30 13.43 30 30z" stroke="#fff" stroke-width="2" fill="none"/><use xlink:href="#a" transform="matrix(1,0,0,1,769.3012287715126,534.6189791707739) translate(30.005000000000003 36.9)"/><path d="M511.3 564.62c0 16.57-13.43 30-30 30s-30-13.43-30-30 13.43-30 30-30 30 13.43 30 30z" stroke="#fff" stroke-width="2" fill="none"/><use xlink:href="#a" transform="matrix(1,0,0,1,451.30122877151257,534.6189791707739) translate(30.005000000000003 36.9)"/><path d="M657.25 326.76v91.2" stroke="#cf6" fill="none"/><path d="M657.25 417.97l-4.63-14.26h9.27z" stroke="#cf6" fill="#cf6"/><path d="M640.25 327.76v91.2" stroke="#fff" fill="none"/><path d="M640.25 327.76l4.64 14.27h-9.28z" stroke="#fff" fill="#fff"/><path d="M623.35 327.05v91.2" stroke="#fff" fill="none"/><path d="M623.35 327.05L628 341.3h-9.28z" stroke="#fff" fill="#fff"/><path d="M504.55 525.6l79.17-45.28" stroke="#cf6" fill="none"/><path d="M583.72 480.32l-10.08 11.1-4.6-8.04z" stroke="#cf6" fill="#cf6"/><path d="M513.86 539.87l79.17-45.3" stroke="#fff" fill="none"/><path d="M513.86 539.87l10.08-11.1 4.6 8.04z" stroke="#fff" fill="#fff"/><path d="M521.63 554.9l79.17-45.3" stroke="#fff" fill="none"/><path d="M521.63 554.9l10.08-11.1 4.6 8.03z" stroke="#fff" fill="#fff"/><path d="M756.73 556.4l-78.76-45.98" stroke="#cf6" fill="none"/><path d="M677.97 510.42l14.65 3.2-4.67 8z" stroke="#cf6" fill="#cf6"/><path d="M764.44 541.22l-78.77-46" stroke="#fff" fill="none"/><path d="M764.44 541.22l-14.66-3.2 4.68-8z" stroke="#fff" fill="#fff"/><path d="M773.58 527l-78.77-46" stroke="#fff" fill="none"/><path d="M773.58 527l-14.66-3.2 4.68-8z" stroke="#fff" fill="#fff"/></g></svg>