<?xml version="1.0" standalone="no"?>
<!DOCTYPE svg PUBLIC "-//W3C//DTD SVG 20010904//EN"
 "http://www.w3.org/TR/2001/REC-SVG-20010904/DTD/svg10.dtd">
<svg version="1.0" xmlns="http://www.w3.org/2000/svg"
 width="512.000000pt" height="512.000000pt" viewBox="0 0 512.000000 512.000000"
 preserveAspectRatio="xMidYMid meet">
<metadata>
Created by potrace 1.14, written by Peter Selinger 2001-2017
</metadata>
<g transform="translate(0.000000,512.000000) scale(0.100000,-0.100000)"
fill="#000000" stroke="none">
<path d="M2390 5114 c-273 -21 -586 -95 -830 -199 -300 -126 -601 -334 -836
-576 -394 -407 -626 -893 -705 -1479 -17 -122 -17 -478 0 -600 79 -583 310
-1068 701 -1474 405 -420 914 -677 1505 -762 148 -21 496 -24 635 -5 417 57
767 184 1095 398 594 389 1008 1016 1125 1705 137 810 -110 1619 -673 2204
-410 427 -917 685 -1507 769 -107 15 -410 26 -510 19z m890 -2074 c118 -15
190 -36 299 -86 119 -56 198 -112 286 -205 117 -123 194 -258 237 -417 30
-106 32 -374 5 -472 -62 -220 -184 -408 -343 -529 -89 -67 -247 -145 -349
-173 -116 -31 -365 -31 -480 0 -113 31 -286 120 -373 193 -145 120 -264 306
-314 489 -20 74 -23 107 -22 255 0 155 3 178 27 258 52 170 133 303 258 423
92 88 146 124 262 179 171 80 331 106 507 85z"/>
</g>
</svg>
